# xmcd
#
# Track frame offsets: 
#        150
#        16654
#        29896
#        51539
#        74588
#        89866
#        100602
#        112957
#        127895
#        141246
#
# Disc length: 2058 seconds
#
# Revision: 0
# Processed by: cddbd v1.5.2PL0 Copyright (c) Steve Scherf et al.
# Submitted via: ExactAudioCopy v0.99pb5
#
DISCID=9008080a
DTITLE=Delaney Davidson - Swim Down Low
DYEAR=2014
DGENRE=Blues
TTITLE0=Big Ugly Fish
TTITLE1=Rise and Shine
TTITLE2=Old Boy (Terrible Times)
TTITLE3=The Poison Song
TTITLE4=It's All Fun
TTITLE5=Farewell
TTITLE6=Dogs Of Love
TTITLE7=Down On Me
TTITLE8=Poor White Trash
TTITLE9=The Beast In Me
EXTD=
EXTT0=
EXTT1=
EXTT2=
EXTT3=
EXTT4=
EXTT5=
EXTT6=
EXTT7=
EXTT8=
EXTT9=
PLAYORDER=
